<svg width="20" height="20" viewBox="0 0 20 20" fill="none" xmlns="http://www.w3.org/2000/svg">
<path d="M3.55303 7.36842C3.78861 7.36842 4.01454 7.47932 4.18112 7.67673C4.3477 7.87414 4.44129 8.14188 4.44129 8.42105C5.83686 8.41862 7.1922 8.97502 8.28744 10H10.215C11.399 10 12.4622 10.6105 13.1942 11.5789H15.9886C16.8283 11.5787 17.6508 11.8605 18.3608 12.3916C19.0707 12.9228 19.6391 13.6816 20 14.58C17.8993 17.8653 14.4981 20 10.6591 20C8.18085 20 6.08456 19.3653 4.38799 18.2547C4.32585 18.458 4.21233 18.6335 4.0629 18.7575C3.91348 18.8814 3.73543 18.9477 3.55303 18.9474H0.888257C0.652677 18.9474 0.426745 18.8365 0.260164 18.6391C0.0935839 18.4417 0 18.1739 0 17.8947V8.42105C0 8.14188 0.0935839 7.87414 0.260164 7.67673C0.426745 7.47932 0.652677 7.36842 0.888257 7.36842H3.55303ZM4.44217 10.5263L4.44129 15.8126L4.48126 15.8463C6.07568 17.1726 8.15242 17.8947 10.6591 17.8947C13.3274 17.8947 15.8101 16.6779 17.6186 14.6L17.7367 14.46L17.6301 14.3547C17.2107 13.9654 16.7023 13.7344 16.1707 13.6916L15.9886 13.6842H14.1135C14.1775 14.0232 14.2121 14.3747 14.2121 14.7368V15.7895H6.2178V13.6842L12.2491 13.6832L12.2189 13.6011C12.0486 13.1795 11.7868 12.8193 11.4602 12.5573C11.1337 12.2954 10.7541 12.1412 10.3606 12.1105L10.215 12.1053H7.61236C7.1996 11.605 6.70658 11.2076 6.1623 10.9364C5.61803 10.6652 5.03348 10.5258 4.44306 10.5263H4.44217ZM2.66477 9.47368H1.77651V16.8421H2.66477V9.47368ZM15.1004 3.15789C15.8071 3.15789 16.4849 3.4906 16.9847 4.08282C17.4844 4.67504 17.7651 5.47826 17.7651 6.31579C17.7651 7.15332 17.4844 7.95654 16.9847 8.54876C16.4849 9.14098 15.8071 9.47368 15.1004 9.47368C14.3936 9.47368 13.7158 9.14098 13.2161 8.54876C12.7164 7.95654 12.4356 7.15332 12.4356 6.31579C12.4356 5.47826 12.7164 4.67504 13.2161 4.08282C13.7158 3.4906 14.3936 3.15789 15.1004 3.15789ZM15.1004 5.26316C14.8648 5.26316 14.6389 5.37406 14.4723 5.57147C14.3057 5.76887 14.2121 6.03661 14.2121 6.31579C14.2121 6.59496 14.3057 6.86271 14.4723 7.06011C14.6389 7.25752 14.8648 7.36842 15.1004 7.36842C15.336 7.36842 15.5619 7.25752 15.7285 7.06011C15.895 6.86271 15.9886 6.59496 15.9886 6.31579C15.9886 6.03661 15.895 5.76887 15.7285 5.57147C15.5619 5.37406 15.336 5.26316 15.1004 5.26316ZM8.88257 0C9.58931 0 10.2671 0.332706 10.7669 0.924926C11.2666 1.51715 11.5473 2.32037 11.5473 3.15789C11.5473 3.99542 11.2666 4.79864 10.7669 5.39086C10.2671 5.98308 9.58931 6.31579 8.88257 6.31579C8.17583 6.31579 7.49804 5.98308 6.99829 5.39086C6.49855 4.79864 6.2178 3.99542 6.2178 3.15789C6.2178 2.32037 6.49855 1.51715 6.99829 0.924926C7.49804 0.332706 8.17583 0 8.88257 0V0ZM8.88257 2.10526C8.64699 2.10526 8.42106 2.21617 8.25448 2.41357C8.0879 2.61098 7.99431 2.87872 7.99431 3.15789C7.99431 3.43707 8.0879 3.70481 8.25448 3.90222C8.42106 4.09962 8.64699 4.21053 8.88257 4.21053C9.11815 4.21053 9.34408 4.09962 9.51066 3.90222C9.67725 3.70481 9.77083 3.43707 9.77083 3.15789C9.77083 2.87872 9.67725 2.61098 9.51066 2.41357C9.34408 2.21617 9.11815 2.10526 8.88257 2.10526V2.10526Z" fill="#EDF0EC"/>
</svg>
