<svg width="20" height="20" viewBox="0 0 20 20" fill="none" xmlns="http://www.w3.org/2000/svg">
<path d="M10.9091 4.44444V2.22222H3.63636V0H12.7273V4.44444H13.6364C13.8775 4.44444 14.1087 4.56151 14.2792 4.76988C14.4497 4.97826 14.5455 5.26087 14.5455 5.55556V8L19.2845 3.94444C19.3527 3.88606 19.4326 3.85166 19.5157 3.845C19.5987 3.83834 19.6817 3.85967 19.7555 3.90666C19.8293 3.95365 19.8911 4.02451 19.9342 4.1115C19.9773 4.1985 20.0001 4.29829 20 4.4V17.8222C20.0001 17.9239 19.9773 18.0237 19.9342 18.1107C19.8911 18.1977 19.8293 18.2686 19.7555 18.3156C19.6817 18.3626 19.5987 18.3839 19.5157 18.3772C19.4326 18.3706 19.3527 18.3362 19.2845 18.2778L14.5455 14.2222V18.8889C14.5455 19.1836 14.4497 19.4662 14.2792 19.6746C14.1087 19.8829 13.8775 20 13.6364 20H0.909091C0.667985 20 0.436754 19.8829 0.266267 19.6746C0.0957789 19.4662 0 19.1836 0 18.8889V5.55556C0 5.26087 0.0957789 4.97826 0.266267 4.76988C0.436754 4.56151 0.667985 4.44444 0.909091 4.44444H10.9091ZM12.7273 6.66667H1.81818V17.7778H12.7273V6.66667ZM14.5455 11.51L18.1818 14.6211V7.6L14.5455 10.7111V11.5089V11.51ZM3.63636 8.88889H5.45455V11.1111H3.63636V8.88889Z" fill="#EDF0EC"/>
</svg>
