<svg width="16" height="15" viewBox="0 0 16 15" fill="none" xmlns="http://www.w3.org/2000/svg">
<path d="M13.0909 14.2897H2.90909C2.71621 14.2897 2.53122 14.2131 2.39483 14.0767C2.25844 13.9403 2.18182 13.7553 2.18182 13.5624V7.01699H0L7.51055 0.189351C7.64444 0.0675166 7.81897 0 8 0C8.18103 0 8.35556 0.0675166 8.48946 0.189351L16 7.01699H13.8182V13.5624C13.8182 13.7553 13.7416 13.9403 13.6052 14.0767C13.4688 14.2131 13.2838 14.2897 13.0909 14.2897ZM8.72727 12.8352H12.3636V5.67662L8 1.71008L3.63636 5.67662V12.8352H7.27273V8.47153H8.72727V12.8352Z" fill="#EDF0EC"/>
</svg>
