<svg width="20" height="20" viewBox="0 0 20 20" fill="none" xmlns="http://www.w3.org/2000/svg">
<path d="M4.44444 6.66667V4.7619C4.44444 3.49897 5.02976 2.28776 6.07163 1.39473C7.1135 0.501699 8.52658 0 10 0C11.4734 0 12.8865 0.501699 13.9284 1.39473C14.9702 2.28776 15.5556 3.49897 15.5556 4.7619V6.66667H18.8889C19.1836 6.66667 19.4662 6.76701 19.6746 6.94561C19.8829 7.12422 20 7.36646 20 7.61905V19.0476C20 19.3002 19.8829 19.5424 19.6746 19.7211C19.4662 19.8997 19.1836 20 18.8889 20H1.11111C0.816426 20 0.533811 19.8997 0.325437 19.7211C0.117063 19.5424 0 19.3002 0 19.0476V7.61905C0 7.36646 0.117063 7.12422 0.325437 6.94561C0.533811 6.76701 0.816426 6.66667 1.11111 6.66667H4.44444ZM4.44444 8.57143H2.22222V18.0952H17.7778V8.57143H15.5556V10.4762H13.3333V8.57143H6.66667V10.4762H4.44444V8.57143ZM6.66667 6.66667H13.3333V4.7619C13.3333 4.00414 12.9821 3.27742 12.357 2.7416C11.7319 2.20578 10.8841 1.90476 10 1.90476C9.11595 1.90476 8.2681 2.20578 7.64298 2.7416C7.01786 3.27742 6.66667 4.00414 6.66667 4.7619V6.66667Z" fill="#EDF0EC"/>
</svg>
