<svg width="20" height="20" viewBox="0 0 20 20" fill="none" xmlns="http://www.w3.org/2000/svg">
<path d="M15 17.8947H5V18.9474C5 19.2265 4.89464 19.4943 4.70711 19.6917C4.51957 19.8891 4.26522 20 4 20H3C2.73478 20 2.48043 19.8891 2.29289 19.6917C2.10536 19.4943 2 19.2265 2 18.9474V17.8947H1V9.47368H0V5.26316H1V2.10526C1 1.54691 1.21071 1.01143 1.58579 0.616617C1.96086 0.221804 2.46957 0 3 0H17C17.5304 0 18.0391 0.221804 18.4142 0.616617C18.7893 1.01143 19 1.54691 19 2.10526V5.26316H20V9.47368H19V17.8947H18V18.9474C18 19.2265 17.8946 19.4943 17.7071 19.6917C17.5196 19.8891 17.2652 20 17 20H16C15.7348 20 15.4804 19.8891 15.2929 19.6917C15.1054 19.4943 15 19.2265 15 18.9474V17.8947ZM17 9.47368V2.10526H3V9.47368H17ZM17 11.5789H3V15.7895H17V11.5789ZM4 12.6316H8V14.7368H4V12.6316ZM12 12.6316H16V14.7368H12V12.6316Z" fill="#EDF0EC"/>
</svg>
