<svg width="250" height="38" viewBox="0 0 250 38" fill="none" xmlns="http://www.w3.org/2000/svg">
<path d="M22.1928 11.2438V36.8297H11.2205V11.2438H0V2.44866H33.3637V11.2438H22.1928Z" fill="#EDF0EC"/>
<path d="M48.9048 13.1927C49.964 12.1267 51.2052 11.3104 52.6285 10.7441C54.0517 10.1444 55.5412 9.84457 57.0968 9.84457C60.1419 9.84457 62.4257 10.6941 63.9483 12.3932C65.4708 14.0922 66.2321 16.5409 66.2321 19.7391V36.8297H56.3521V20.9385C56.3521 19.8058 56.0542 18.9062 55.4584 18.24C54.8957 17.5403 54.0848 17.1905 53.0257 17.1905C51.801 17.1905 50.808 17.5903 50.0467 18.3899C49.2855 19.1894 48.9048 20.1722 48.9048 21.3382V36.8297H39.0248V0.599666H48.9048V13.1927Z" fill="#EDF0EC"/>
<path d="M85.6939 9.84457C90.4933 9.84457 94.1507 10.9773 96.6662 13.2427C99.2148 15.5081 100.489 18.9729 100.489 23.637V25.336H80.8284C80.8284 27.235 81.2421 28.6675 82.0696 29.6337C82.9302 30.5998 84.2706 31.0829 86.0911 31.0829C87.746 31.0829 88.9542 30.7331 89.7154 30.0334C90.5098 29.3338 90.907 28.401 90.907 27.235H100.489C100.489 30.4332 99.281 32.9318 96.8648 34.7308C94.4486 36.5298 90.9236 37.4293 86.2897 37.4293C81.4242 37.4293 77.6509 36.2967 74.9699 34.0312C72.2889 31.7325 70.9483 28.2678 70.9483 23.637C70.9483 19.1061 72.2557 15.6747 74.8706 13.3426C77.4854 11.0106 81.0932 9.84457 85.6939 9.84457ZM86.0911 16.1911C82.9798 16.1911 81.2421 17.6736 80.878 20.6386H90.5098C90.5098 19.2727 90.1126 18.19 89.3182 17.3904C88.557 16.5909 87.4812 16.1911 86.0911 16.1911Z" fill="#EDF0EC"/>
<path d="M149.276 1.84899C153.645 1.84899 157.236 2.7485 160.05 4.5475C162.863 6.3132 164.303 8.94508 164.369 12.4431V13.0428H154.092V12.8429C154.092 11.8435 153.728 11.0106 153 10.3443C152.272 9.67801 151.163 9.34486 149.673 9.34486C148.217 9.34486 147.092 9.5614 146.297 9.99449C145.536 10.4276 145.155 10.9606 145.155 11.5936C145.155 12.4931 145.685 13.1594 146.744 13.5925C147.803 14.0256 149.508 14.4754 151.858 14.9418C154.605 15.5081 156.856 16.1078 158.61 16.7408C160.397 17.3404 161.953 18.3399 163.277 19.7391C164.601 21.1384 165.28 23.0373 165.313 25.436C165.313 29.5004 163.939 32.5154 161.192 34.481C158.478 36.4466 154.837 37.4294 150.269 37.4294C144.94 37.4294 140.786 36.5299 137.807 34.7309C134.862 32.9319 133.389 29.7503 133.389 25.1861H143.765C143.765 26.9185 144.212 28.0845 145.106 28.6842C145.999 29.2505 147.39 29.5337 149.276 29.5337C150.666 29.5337 151.808 29.3838 152.702 29.084C153.629 28.7842 154.092 28.1678 154.092 27.235C154.092 26.4021 153.579 25.7858 152.553 25.386C151.56 24.9529 149.922 24.5032 147.638 24.0367C144.857 23.4371 142.557 22.8208 140.737 22.1878C138.916 21.5215 137.327 20.4387 135.97 18.9396C134.613 17.4404 133.935 15.4082 133.935 12.8429C133.935 9.07833 135.375 6.3132 138.254 4.5475C141.167 2.7485 144.841 1.84899 149.276 1.84899Z" fill="#EDF0EC"/>
<path d="M183.021 9.8446C187.026 9.8446 190.286 10.5275 192.802 11.8934C195.317 13.226 196.575 15.4082 196.575 18.4398V28.7342C196.575 29.3005 196.708 29.7669 196.972 30.1334C197.237 30.4999 197.634 30.6831 198.164 30.6831H199.951V36.4299C199.852 36.4966 199.587 36.6131 199.157 36.7797C198.76 36.913 198.181 37.0463 197.419 37.1795C196.658 37.3461 195.781 37.4294 194.788 37.4294C192.868 37.4294 191.279 37.1462 190.022 36.5798C188.797 35.9802 187.953 35.164 187.49 34.1312C186.232 35.1306 184.825 35.9302 183.269 36.5299C181.714 37.1295 179.893 37.4294 177.808 37.4294C171.652 37.4294 168.574 34.9641 168.574 30.0334C168.574 27.4682 169.252 25.5193 170.609 24.1867C171.999 22.8208 173.985 21.888 176.567 21.3882C179.149 20.8885 182.525 20.6386 186.695 20.6386V19.3394C186.695 18.3066 186.331 17.5237 185.603 16.9907C184.908 16.4576 183.998 16.1911 182.872 16.1911C181.846 16.1911 180.953 16.3743 180.191 16.7408C179.463 17.1072 179.099 17.6903 179.099 18.4898V18.6897H169.368C169.335 18.5231 169.318 18.2899 169.318 17.9901C169.318 15.4915 170.493 13.5092 172.843 12.0434C175.226 10.5775 178.619 9.8446 183.021 9.8446ZM186.695 25.336C183.882 25.336 181.797 25.6525 180.439 26.2855C179.116 26.8852 178.454 27.7014 178.454 28.7342C178.454 30.3999 179.579 31.2328 181.83 31.2328C183.12 31.2328 184.246 30.883 185.206 30.1834C186.199 29.4837 186.695 28.6176 186.695 27.5848V25.336Z" fill="#EDF0EC"/>
<path d="M213.852 0C214.581 0 215.491 0.0999572 216.583 0.299848C217.675 0.466423 218.553 0.66631 219.214 0.899514V6.74631H216.931C215.872 6.74631 215.143 6.94619 214.746 7.34597C214.349 7.74576 214.15 8.42869 214.15 9.39482V10.4443H219.214V17.1905H214.15V36.8297H204.27V17.1905H200.596V10.4443H204.27V9.34486C204.27 5.94674 205.098 3.54807 206.753 2.14884C208.408 0.716296 210.774 0 213.852 0Z" fill="#EDF0EC"/>
<path d="M235.205 9.8446C240.004 9.8446 243.662 10.9773 246.177 13.2427C248.726 15.5081 250 18.9729 250 23.637V25.336H230.339C230.339 27.235 230.753 28.6675 231.58 29.6337C232.441 30.5998 233.782 31.0829 235.602 31.0829C237.257 31.0829 238.465 30.7331 239.226 30.0334C240.021 29.3338 240.418 28.401 240.418 27.235H250C250 30.4332 248.792 32.9319 246.376 34.7309C243.959 36.5299 240.434 37.4294 235.801 37.4294C230.935 37.4294 227.162 36.2967 224.481 34.0312C221.8 31.7325 220.459 28.2678 220.459 23.637C220.459 19.1061 221.767 15.6747 224.381 13.3427C226.996 11.0106 230.604 9.8446 235.205 9.8446ZM235.602 16.1911C232.491 16.1911 230.753 17.6736 230.389 20.6386H240.021C240.021 19.2727 239.623 18.19 238.829 17.3904C238.068 16.5909 236.992 16.1911 235.602 16.1911Z" fill="#EDF0EC"/>
<path d="M117.102 6.29101C120.138 6.29101 121.392 6.00504 122.618 7.6791C123.863 9.33497 123.997 12.8599 123.997 16.0079C123.997 19.1558 123.375 21.5669 122.13 23.2409C120.904 24.8968 118.773 25.7247 115.736 25.7247C112.681 25.7247 112.83 27.3806 111.585 25.7247C110.359 24.0507 110.206 16.3796 110.206 13.2316C110.206 10.0836 110.359 9.335 111.585 7.67913C112.83 6.00507 114.046 6.29101 117.102 6.29101ZM115.722 9.06723C114.742 9.06723 114.058 9.7275 113.643 10.4554C113.228 11.1832 113.021 12.9873 113.021 14.6432V17.3453C113.021 19.0194 113.228 20.2203 113.643 20.9482C114.058 21.676 114.756 22.04 115.736 22.04C116.717 22.04 117.406 21.676 117.802 20.9482C118.198 20.2203 121.239 19.07 121.239 17.396V11.8435C121.239 10.1694 119.625 9.06723 118.481 9.06723C117.101 9.06723 116.703 9.06723 115.722 9.06723Z" fill="#051A00"/>
<path d="M104.689 20.1722C104.689 18.639 105.924 17.396 107.448 17.396H126.755C128.279 17.396 129.514 18.639 129.514 20.1722V34.0535C129.514 35.5868 128.279 36.8297 126.755 36.8297H107.448C105.924 36.8297 104.689 35.5868 104.689 34.0535V20.1722Z" fill="#EDF0EC"/>
<path d="M118.245 23.0537C119.288 23.1147 120.149 23.3282 120.829 23.6942C121.509 24.0515 121.849 24.57 121.849 25.2497H118.704C118.693 25.0057 118.563 24.8358 118.313 24.7399C118.076 24.6354 117.804 24.5831 117.498 24.5831C116.682 24.5831 116.274 24.7312 116.274 25.0275C116.274 25.1931 116.415 25.3107 116.699 25.3804C116.982 25.4502 117.447 25.5242 118.093 25.6027C118.886 25.6898 119.549 25.7944 120.081 25.9164C120.614 26.0297 121.079 26.2388 121.475 26.5438C121.872 26.8401 122.07 27.2584 122.07 27.7987C122.07 28.5917 121.719 29.1799 121.016 29.5634C120.325 29.9468 119.401 30.169 118.245 30.23L118.381 32.0208H116.461L116.58 30.2169C115.492 30.1298 114.591 29.8902 113.877 29.498C113.163 29.0971 112.806 28.5438 112.806 27.8379H115.951V27.8902C115.962 28.1865 116.121 28.3956 116.427 28.5176C116.744 28.6309 117.078 28.6876 117.43 28.6876C118.37 28.6876 118.84 28.5176 118.84 28.1778C118.84 28.0035 118.693 27.8771 118.398 27.7987C118.104 27.7203 117.622 27.6375 116.954 27.5504C116.149 27.4458 115.486 27.3325 114.965 27.2105C114.455 27.0885 114.007 26.8837 113.622 26.5961C113.236 26.2998 113.044 25.8902 113.044 25.3674C113.044 24.6354 113.361 24.0864 113.996 23.7204C114.642 23.3544 115.503 23.1365 116.58 23.0668L116.461 21.2629H118.381L118.245 23.0537Z" fill="#051A00"/>
</svg>
