<svg width="20" height="20" viewBox="0 0 20 20" fill="none" xmlns="http://www.w3.org/2000/svg">
<path d="M11.1111 17.8947H17.7778V13.6842H13.3333V11.5789H17.7778V3.15789H15.5556V8.42105L11.1111 6.73684V17.8947ZM8.88889 17.8947V6.73684L4.44444 8.42105V3.15789H2.22222V17.8947H8.88889ZM4.44444 1.05263V0H15.5556V1.05263H18.8889C19.1836 1.05263 19.4662 1.16353 19.6746 1.36094C19.8829 1.55835 20 1.82609 20 2.10526V18.9474C20 19.2265 19.8829 19.4943 19.6746 19.6917C19.4662 19.8891 19.1836 20 18.8889 20H1.11111C0.816426 20 0.533811 19.8891 0.325437 19.6917C0.117063 19.4943 0 19.2265 0 18.9474V2.10526C0 1.82609 0.117063 1.55835 0.325437 1.36094C0.533811 1.16353 0.816426 1.05263 1.11111 1.05263H4.44444ZM10 5.26316L13.8889 2.10526H6.11111L10 5.26316Z" fill="#EDF0EC"/>
</svg>
