<svg width="20" height="20" viewBox="0 0 20 20" fill="none" xmlns="http://www.w3.org/2000/svg">
<path d="M12.7273 6.51021e-06C13.3657 -8.14498e-05 13.9929 0.194461 14.5458 0.564074C15.0987 0.933686 15.5579 1.46534 15.877 2.10558C16.1962 2.74582 16.3642 3.47207 16.3641 4.21132C16.3639 4.95057 16.1957 5.67675 15.8764 6.31685L20 6.31579V8.42106H18.1818V18.9474C18.1818 19.2265 18.086 19.4943 17.9156 19.6917C17.7451 19.8891 17.5138 20 17.2727 20H2.72727C2.48617 20 2.25494 19.8891 2.08445 19.6917C1.91396 19.4943 1.81818 19.2265 1.81818 18.9474V8.42106H0V6.31579L4.12364 6.31685C3.6726 5.41252 3.5279 4.34638 3.71762 3.32545C3.90734 2.30452 4.41795 1.40166 5.1503 0.792166C5.88266 0.182677 6.78448 -0.0899412 7.68068 0.0272472C8.57688 0.144436 9.40349 0.643067 10 1.42632C10.3405 0.97725 10.7601 0.617663 11.2304 0.371667C11.7008 0.125672 12.2112 -0.00104658 12.7273 6.51021e-06V6.51021e-06ZM9.09091 8.42106H3.63636V17.8947H9.09091V8.42106ZM16.3636 8.42106H10.9091V17.8947H16.3636V8.42106ZM7.27273 2.10527C6.80092 2.10282 6.34678 2.31283 6.00623 2.69093C5.66567 3.06903 5.46539 3.5856 5.44769 4.13152C5.42999 4.67744 5.59625 5.20995 5.91136 5.61655C6.22646 6.02315 6.66573 6.272 7.13636 6.31053L7.27273 6.31579H9.09091V4.21053C9.09093 3.70744 8.93535 3.22097 8.65236 2.83922C8.36936 2.45748 7.97766 2.2057 7.54818 2.12948L7.40818 2.11053L7.27273 2.10527ZM12.7273 2.10527C12.2686 2.1051 11.8268 2.3057 11.4904 2.66684C11.1541 3.02799 10.948 3.523 10.9136 4.05264L10.9091 4.21053V6.31579H12.7273C13.186 6.31596 13.6278 6.11537 13.9641 5.75422C14.3005 5.39307 14.5065 4.89806 14.5409 4.36843L14.5455 4.21053C14.5455 3.65218 14.3539 3.1167 14.0129 2.72189C13.6719 2.32707 13.2095 2.10527 12.7273 2.10527V2.10527Z" fill="#EDF0EC"/>
</svg>
