<svg width="20" height="20" viewBox="0 0 20 20" fill="none" xmlns="http://www.w3.org/2000/svg">
<path d="M17 11.5789V14.7368H20V16.8421H16.999L17 20H15L14.999 16.8421H12V14.7368H15V11.5789H17ZM18.243 1.84945C20.505 4.23683 20.583 8.03893 18.479 10.5179L17.059 9.02525C18.39 7.42104 18.32 4.90525 16.827 3.33682C15.324 1.75893 12.907 1.69156 11.337 3.17577L10.002 4.43683L8.66603 3.17682C7.09103 1.69051 4.67503 1.75577 3.17203 3.33893C1.68203 4.90735 1.60703 7.41788 2.98003 9.07683L11.412 17.9674L10 19.4579L1.52003 10.5189C-0.583971 8.03893 -0.50497 4.23051 1.75603 1.84945C4.02103 -0.533706 7.64403 -0.613706 10 1.60945C12.349 -0.610548 15.979 -0.536864 18.242 1.84945H18.243Z" fill="#EDF0EC"/>
</svg>
