<svg width="20" height="20" viewBox="0 0 20 20" fill="none" xmlns="http://www.w3.org/2000/svg">
<path d="M17.0514 13.1025C17.6718 11.5611 17.8146 9.85504 17.4597 8.22429C17.1049 6.59354 16.2703 5.1201 15.0732 4.01112C13.8762 2.90214 12.3769 2.2134 10.7862 2.04172C9.1954 1.87004 7.59321 2.22406 6.20482 3.05401L5.2564 1.31726C6.70737 0.450001 8.35042 -0.00418161 10.0216 2.90123e-05C11.6929 0.00423963 13.3338 0.466696 14.7808 1.34126C19.0735 3.93288 20.7179 9.48208 18.7169 14.1094L19.9999 14.8833L16.0179 17.097L15.8602 12.3837L17.0514 13.1025V13.1025ZM2.94941 6.89745C2.32906 8.43893 2.18626 10.145 2.54109 11.7757C2.89592 13.4065 3.73053 14.8799 4.92759 15.9889C6.12464 17.0979 7.62394 17.7866 9.21468 17.9583C10.8054 18.13 12.4076 17.7759 13.796 16.946L14.7444 18.6827C13.2935 19.55 11.6504 20.0042 9.97919 20C8.30797 19.9958 6.66702 19.5333 5.22007 18.6587C0.927326 16.0671 -0.717113 10.5179 1.28394 5.8906L-6.10352e-05 5.11771L3.98197 2.90403L4.13972 7.61735L2.94845 6.89845L2.94941 6.89745ZM11.3533 12.8276L8.64662 10L5.94286 12.8276L4.59098 11.4138L8.64758 7.17241L11.3523 10L14.057 7.17241L15.4089 8.58621L11.3523 12.8276H11.3533Z" fill="#EDF0EC"/>
</svg>
