<svg width="21" height="21" viewBox="0 0 21 21" fill="none" xmlns="http://www.w3.org/2000/svg">
<path d="M11.3691 15.4881V17.7792H15.9145V20.0015H5.00542V17.7792H9.55087V15.4881C7.79332 15.2173 6.17707 14.1718 5.00542 12.5479C3.83377 10.9239 3.18726 8.83325 3.18723 6.66813V0.00146484H17.7327V6.66813C17.7327 8.83325 17.0862 10.9239 15.9145 12.5479C14.7429 14.1718 13.1266 15.2173 11.3691 15.4881V15.4881ZM5.00542 2.22369V6.66813C5.00542 8.43624 5.58009 10.1319 6.60302 11.3822C7.62594 12.6324 9.01333 13.3348 10.46 13.3348C11.9066 13.3348 13.294 12.6324 14.3169 11.3822C15.3398 10.1319 15.9145 8.43624 15.9145 6.66813V2.22369H5.00542ZM0.459961 2.22369H2.27814V6.66813H0.459961V2.22369ZM18.6418 2.22369H20.46V6.66813H18.6418V2.22369Z" fill="#EDF0EC"/>
</svg>
