<svg width="20" height="20" viewBox="0 0 20 20" fill="none" xmlns="http://www.w3.org/2000/svg">
<path d="M17.0515 13.1025C17.6718 11.5611 17.8146 9.85504 17.4598 8.22429C17.105 6.59354 16.2704 5.1201 15.0733 4.01112C13.8763 2.90214 12.377 2.2134 10.7862 2.04172C9.19547 1.87004 7.59327 2.22406 6.20489 3.05401L5.25647 1.31726C6.70743 0.450001 8.35049 -0.00418161 10.0217 2.90123e-05C11.6929 0.00423963 13.3339 0.466696 14.7808 1.34126C19.0736 3.93288 20.718 9.48208 18.717 14.1094L20 14.8833L16.018 17.097L15.8602 12.3837L17.0515 13.1025V13.1025ZM2.94947 6.89745C2.32912 8.43893 2.18632 10.145 2.54115 11.7757C2.89598 13.4065 3.73059 14.8799 4.92765 15.9889C6.1247 17.0979 7.624 17.7866 9.21475 17.9583C10.8055 18.13 12.4077 17.7759 13.7961 16.946L14.7445 18.6827C13.2935 19.55 11.6505 20.0042 9.97925 20C8.30803 19.9958 6.66708 19.5333 5.22014 18.6587C0.927387 16.0671 -0.717052 10.5179 1.284 5.8906L0 5.11771L3.98203 2.90403L4.13978 7.61735L2.94852 6.89845L2.94947 6.89745ZM6.65424 11.9997H11.9126C12.0394 11.9997 12.161 11.947 12.2506 11.8533C12.3403 11.7595 12.3907 11.6324 12.3907 11.4998C12.3907 11.3672 12.3403 11.24 12.2506 11.1463C12.161 11.0525 12.0394 10.9999 11.9126 10.9999H8.08834C7.45443 10.9999 6.84648 10.7365 6.39823 10.2677C5.94999 9.79896 5.69817 9.16316 5.69817 8.50022C5.69817 7.83727 5.94999 7.20148 6.39823 6.73271C6.84648 6.26393 7.45443 6.00058 8.08834 6.00058H9.04441V5.00073H10.9565V6.00058H13.3467V8.00029H8.08834C7.96156 8.00029 7.83997 8.05296 7.75032 8.14672C7.66067 8.24047 7.61031 8.36763 7.61031 8.50022C7.61031 8.63281 7.66067 8.75997 7.75032 8.85372C7.83997 8.94747 7.96156 9.00015 8.08834 9.00015H11.9126C12.5465 9.00015 13.1545 9.2635 13.6027 9.73227C14.051 10.201 14.3028 10.8368 14.3028 11.4998C14.3028 12.1627 14.051 12.7985 13.6027 13.2673C13.1545 13.7361 12.5465 13.9994 11.9126 13.9994H10.9565V14.9993H9.04441V13.9994H6.65424V11.9997Z" fill="#EDF0EC"/>
</svg>
